<svg width="301" height="301" viewBox="0 0 301 301" fill="none" xmlns="http://www.w3.org/2000/svg">
<path fill-rule="evenodd" clip-rule="evenodd" d="M225.353 41.9039C225.353 51.179 222.34 59.7503 217.238 66.6922H290.308C295.831 66.6922 300.308 71.1693 300.308 76.6922V137.922C295.54 136.036 290.343 135 284.904 135C261.761 135 243 153.761 243 176.904C243 200.047 261.761 218.808 284.904 218.808C290.343 218.808 295.54 217.772 300.308 215.886V291C300.308 296.523 295.831 301 290.308 301H212.874C217.256 294.378 219.808 286.439 219.808 277.904C219.808 254.761 201.047 236 177.904 236C154.761 236 136 254.761 136 277.904C136 286.439 138.552 294.378 142.934 301H76C70.4772 301 66 296.523 66 291V215.471C59.6269 218.994 52.2977 221 44.5 221C19.9233 221 0 201.077 0 176.5C0 151.923 19.9233 132 44.5 132C52.2977 132 59.6269 134.006 66 137.529V76.6922C66 71.1693 70.4771 66.6922 76 66.6922H149.66C144.559 59.7503 141.545 51.179 141.545 41.9039C141.545 18.761 160.306 0 183.449 0C206.592 0 225.353 18.761 225.353 41.9039Z" fill="url(#paint0_linear_226_46)"/>
<defs>
<linearGradient id="paint0_linear_226_46" x1="248" y1="7.49999" x2="128.5" y2="339" gradientUnits="userSpaceOnUse">
<stop stop-color="#3EF3FF"/>
<stop offset="1" stop-color="#1D4EFF" stop-opacity="0.6"/>
</linearGradient>
</defs>
</svg>
